<svg version="1.1" xmlns="http://www.w3.org/2000/svg" width="800" height="600"><defs><clipPath id="xOznyITQhrKa"><path fill="none" stroke="none" d="M 0.5 0.5 L 800.5 0.5 L 800.5 600.5 L 0.5 600.5 L 0.5 0.5 Z M 52.5 27.5 L 770.5 27.5 L 770.5 555.5 L 52.5 555.5 L 52.5 27.5 Z" clip-rule="evenodd"/></clipPath><clipPath id="IgfozeSSAHlQ"><path fill="none" stroke="none" d="M 52.5 27.5 L 770.5 27.5 L 770.5 555.5 L 52.5 555.5 L 52.5 27.5 Z"/></clipPath><clipPath id="TFoDNDUiRLNw"><path fill="none" stroke="none" d="M 52.5 27.5 L 770.5 27.5 L 770.5 555.5 L 52.5 555.5 L 52.5 27.5 Z"/></clipPath><clipPath id="KDvMCqokNAGn"><path fill="none" stroke="none" d="M 52.5 27.5 L 770.5 27.5 L 770.5 555.5 L 52.5 555.5 L 52.5 27.5 Z"/></clipPath><clipPath id="zSJWBQNDknun"><path fill="none" stroke="none" d="M 52.5 27.5 L 770.5 27.5 L 770.5 555.5 L 52.5 555.5 L 52.5 27.5 Z"/></clipPath><clipPath id="MwShNvCKryqB"><path fill="none" stroke="none" d="M 52.5 27.5 L 770.5 27.5 L 770.5 555.5 L 52.5 555.5 L 52.5 27.5 Z"/></clipPath><clipPath id="PKnbRTedoRlJ"><path fill="none" stroke="none" d="M 52.5 27.5 L 770.5 27.5 L 770.5 555.5 L 52.5 555.5 L 52.5 27.5 Z"/></clipPath><clipPath id="ARVMETrDKFIN"><path fill="none" stroke="none" d="M 52.5 27.5 L 770.5 27.5 L 770.5 555.5 L 52.5 555.5 L 52.5 27.5 Z"/></clipPath><clipPath id="UpeTDfIeaiiN"><path fill="none" stroke="none" d="M 52.5 27.5 L 770.5 27.5 L 770.5 555.5 L 52.5 555.5 L 52.5 27.5 Z"/></clipPath><clipPath id="VqIAGAoAtJRX"><path fill="none" stroke="none" d="M 52.5 27.5 L 770.5 27.5 L 770.5 555.5 L 52.5 555.5 L 52.5 27.5 Z"/></clipPath><clipPath id="bwbJCfTETsQu"><path fill="none" stroke="none" d="M 52.5 27.5 L 770.5 27.5 L 770.5 555.5 L 52.5 555.5 L 52.5 27.5 Z"/></clipPath><clipPath id="aVArboNGXDUd"><path fill="none" stroke="none" d="M 52.5 27.5 L 770.5 27.5 L 770.5 555.5 L 52.5 555.5 L 52.5 27.5 Z"/></clipPath><clipPath id="askSXJUvPluA"><path fill="none" stroke="none" d="M 52.5 27.5 L 770.5 27.5 L 770.5 555.5 L 52.5 555.5 L 52.5 27.5 Z"/></clipPath><clipPath id="pasbMnmtJwaF"><path fill="none" stroke="none" d="M 52.5 27.5 L 770.5 27.5 L 770.5 555.5 L 52.5 555.5 L 52.5 27.5 Z"/></clipPath><clipPath id="SDLUxkQEBXGM"><path fill="none" stroke="none" d="M 52.5 27.5 L 770.5 27.5 L 770.5 555.5 L 52.5 555.5 L 52.5 27.5 Z"/></clipPath><clipPath id="ntavIbgGnvzB"><path fill="none" stroke="none" d="M 52.5 27.5 L 770.5 27.5 L 770.5 555.5 L 52.5 555.5 L 52.5 27.5 Z"/></clipPath><clipPath id="NfuOPTzdZeuD"><path fill="none" stroke="none" d="M 52.5 27.5 L 770.5 27.5 L 770.5 555.5 L 52.5 555.5 L 52.5 27.5 Z"/></clipPath></defs><path fill="#ffffff" stroke="none" paint-order="stroke" d="M 0.5 0.5 L 800.5 0.5 L 800.5 600.5 L 0.5 600.5 L 0.5 0.5 Z" clip-path="url(#xOznyITQhrKa)"/><path fill="#ffffff" stroke="none" paint-order="stroke" d="M 52.5 27.5 L 770.5 27.5 L 770.5 555.5 L 52.5 555.5 L 52.5 27.5 Z"/><path fill="none" stroke="#e5e5e5" paint-order="fill" d="M 52.5 27.5 L 770.5 27.5 L 770.5 555.5 L 52.5 555.5 L 52.5 27.5 Z" stroke-linejoin="bevel" stroke-miterlimit="10"/><path fill="none" stroke="#e5e5e5" paint-order="fill" d="M 85.5 555.5 L 85.5 27.5 M 131.5 555.5 L 131.5 27.5 M 178.5 555.5 L 178.5 27.5 M 225.5 555.5 L 225.5 27.5 M 271.5 555.5 L 271.5 27.5 M 318.5 555.5 L 318.5 27.5 M 364.5 555.5 L 364.5 27.5 M 411.5 555.5 L 411.5 27.5 M 458.5 555.5 L 458.5 27.5 M 504.5 555.5 L 504.5 27.5 M 551.5 555.5 L 551.5 27.5 M 597.5 555.5 L 597.5 27.5 M 644.5 555.5 L 644.5 27.5 M 691.5 555.5 L 691.5 27.5 M 737.5 555.5 L 737.5 27.5" stroke-linejoin="bevel" stroke-miterlimit="10" clip-path="url(#IgfozeSSAHlQ)"/><path fill="none" stroke="#e5e5e5" paint-order="fill" d="M 52.5 456.5 L 770.5 456.5 M 52.5 352.5 L 770.5 352.5 M 52.5 248.5 L 770.5 248.5 M 52.5 144.5 L 770.5 144.5 M 52.5 41.5 L 770.5 41.5" stroke-linejoin="bevel" stroke-miterlimit="10" clip-path="url(#TFoDNDUiRLNw)"/><path fill="rgb(0 0 128)" stroke="rgb(31 119 180)" paint-order="fill" d="M 81.63636016845703 478.51532433083554 L 88.63636016845703 478.51532433083554 L 85.13636016845703 472.4531465043445 Z" clip-path="url(#KDvMCqokNAGn)" stroke-linejoin="bevel" stroke-miterlimit="10"/><path fill="rgb(0 0 128)" stroke="rgb(31 119 180)" paint-order="fill" d="M 128.25973510742188 533.5207259421637 L 135.25973510742188 533.5207259421637 L 131.75973510742188 527.4585481156727 Z" clip-path="url(#KDvMCqokNAGn)" stroke-linejoin="bevel" stroke-miterlimit="10"/><path fill="rgb(0 0 128)" stroke="rgb(31 119 180)" paint-order="fill" d="M 174.88311767578125 533.5207259421637 L 181.88311767578125 533.5207259421637 L 178.38311767578125 527.4585481156727 Z" clip-path="url(#KDvMCqokNAGn)" stroke-linejoin="bevel" stroke-miterlimit="10"/><path fill="rgb(0 0 128)" stroke="rgb(31 119 180)" paint-order="fill" d="M 221.50650024414062 529.3693587546637 L 228.50650024414062 529.3693587546637 L 225.00650024414062 523.3071809281727 Z" clip-path="url(#KDvMCqokNAGn)" stroke-linejoin="bevel" stroke-miterlimit="10"/><path fill="rgb(0 0 128)" stroke="rgb(31 119 180)" paint-order="fill" d="M 268.1298828125 533.5207259421637 L 275.1298828125 533.5207259421637 L 271.6298828125 527.4585481156727 Z" clip-path="url(#KDvMCqokNAGn)" stroke-linejoin="bevel" stroke-miterlimit="10"/><path fill="rgb(0 0 128)" stroke="rgb(31 119 180)" paint-order="fill" d="M 314.75323486328125 533.0018050437262 L 321.75323486328125 533.0018050437262 L 318.25323486328125 526.9396272172352 Z" clip-path="url(#KDvMCqokNAGn)" stroke-linejoin="bevel" stroke-miterlimit="10"/><path fill="rgb(0 0 128)" stroke="rgb(31 119 180)" paint-order="fill" d="M 361.3766174316406 531.4450423484137 L 368.3766174316406 531.4450423484137 L 364.8766174316406 525.3828645219227 Z" clip-path="url(#KDvMCqokNAGn)" stroke-linejoin="bevel" stroke-miterlimit="10"/><path fill="rgb(0 0 128)" stroke="rgb(31 119 180)" paint-order="fill" d="M 408 533.0018050437262 L 415 533.0018050437262 L 411.5 526.9396272172352 Z" clip-path="url(#KDvMCqokNAGn)" stroke-linejoin="bevel" stroke-miterlimit="10"/><path fill="rgb(0 0 128)" stroke="rgb(31 119 180)" paint-order="fill" d="M 454.6233825683594 530.9261214499762 L 461.6233825683594 530.9261214499762 L 458.1233825683594 524.8639436234852 Z" clip-path="url(#KDvMCqokNAGn)" stroke-linejoin="bevel" stroke-miterlimit="10"/><path fill="rgb(0 0 128)" stroke="rgb(31 119 180)" paint-order="fill" d="M 501.24676513671875 532.4828841452887 L 508.24676513671875 532.4828841452887 L 504.74676513671875 526.4207063187977 Z" clip-path="url(#KDvMCqokNAGn)" stroke-linejoin="bevel" stroke-miterlimit="10"/><path fill="rgb(0 0 128)" stroke="rgb(31 119 180)" paint-order="fill" d="M 547.8701171875 533.5207259421637 L 554.8701171875 533.5207259421637 L 551.3701171875 527.4585481156727 Z" clip-path="url(#KDvMCqokNAGn)" stroke-linejoin="bevel" stroke-miterlimit="10"/><path fill="rgb(0 0 128)" stroke="rgb(31 119 180)" paint-order="fill" d="M 594.4935302734375 533.5207259421637 L 601.4935302734375 533.5207259421637 L 597.9935302734375 527.4585481156727 Z" clip-path="url(#KDvMCqokNAGn)" stroke-linejoin="bevel" stroke-miterlimit="10"/><path fill="rgb(0 0 128)" stroke="rgb(31 119 180)" paint-order="fill" d="M 641.1168823242188 533.5207259421637 L 648.1168823242188 533.5207259421637 L 644.6168823242188 527.4585481156727 Z" clip-path="url(#KDvMCqokNAGn)" stroke-linejoin="bevel" stroke-miterlimit="10"/><path fill="rgb(0 0 128)" stroke="rgb(31 119 180)" paint-order="fill" d="M 687.740234375 533.5207259421637 L 694.740234375 533.5207259421637 L 691.240234375 527.4585481156727 Z" clip-path="url(#KDvMCqokNAGn)" stroke-linejoin="bevel" stroke-miterlimit="10"/><path fill="rgb(0 0 128)" stroke="rgb(31 119 180)" paint-order="fill" d="M 734.3636474609375 533.0018050437262 L 741.3636474609375 533.0018050437262 L 737.8636474609375 526.9396272172352 Z" clip-path="url(#KDvMCqokNAGn)" stroke-linejoin="bevel" stroke-miterlimit="10"/><path fill="none" stroke="navy" paint-order="fill" d="M 85.13636016845703 476.4945983886719 L 131.75973510742188 531.5 L 178.38311767578125 531.5 L 225.00650024414062 527.3486328125 L 271.6298828125 531.5 L 318.25323486328125 530.9810791015625 L 364.8766174316406 529.42431640625 L 411.5 530.9810791015625 L 458.1233825683594 528.9053955078125 L 504.74676513671875 530.462158203125 L 551.3701171875 531.5 L 597.9935302734375 531.5 L 644.6168823242188 531.5 L 691.240234375 531.5 L 737.8636474609375 530.9810791015625" stroke-linejoin="bevel" stroke-miterlimit="10" clip-path="url(#zSJWBQNDknun)"/><path fill="rgb(0 0 128)" stroke="rgb(31 119 180)" paint-order="fill" d="M 135.25973510742188 512.8189086914062 A 3.5 3.5 0 0 1 128.25973510742188 512.8189086914062 A 3.5 3.5 0 0 1 135.25973510742188 512.8189086914062" clip-path="url(#MwShNvCKryqB)" stroke-linejoin="bevel" stroke-miterlimit="10"/><path fill="rgb(0 0 128)" stroke="rgb(31 119 180)" paint-order="fill" d="M 181.88311767578125 529.42431640625 A 3.5 3.5 0 0 1 174.88311767578125 529.42431640625 A 3.5 3.5 0 0 1 181.88311767578125 529.42431640625" clip-path="url(#MwShNvCKryqB)" stroke-linejoin="bevel" stroke-miterlimit="10"/><path fill="rgb(0 0 128)" stroke="rgb(31 119 180)" paint-order="fill" d="M 368.3766174316406 528.9053955078125 A 3.5 3.5 0 0 1 361.3766174316406 528.9053955078125 A 3.5 3.5 0 0 1 368.3766174316406 528.9053955078125" clip-path="url(#MwShNvCKryqB)" stroke-linejoin="bevel" stroke-miterlimit="10"/><path fill="none" stroke="navy" paint-order="fill" d="M 131.75973510742188 512.8189086914062 L 178.38311767578125 529.42431640625 L 364.8766174316406 528.9053955078125" stroke-linejoin="bevel" stroke-miterlimit="10" clip-path="url(#PKnbRTedoRlJ)"/><path fill="rgb(0 0 128)" stroke="rgb(31 119 180)" paint-order="fill" d="M 81.63636016845703 485.9675598144531 L 88.63636016845703 485.9675598144531 L 88.63636016845703 492.9675598144531 L 81.63636016845703 492.9675598144531 L 81.63636016845703 485.9675598144531 Z" clip-path="url(#ARVMETrDKFIN)" stroke-linejoin="bevel" stroke-miterlimit="10"/><path fill="rgb(0 0 128)" stroke="rgb(31 119 180)" paint-order="fill" d="M 128.25973510742188 453.2756652832031 L 135.25973510742188 453.2756652832031 L 135.25973510742188 460.2756652832031 L 128.25973510742188 460.2756652832031 L 128.25973510742188 453.2756652832031 Z" clip-path="url(#ARVMETrDKFIN)" stroke-linejoin="bevel" stroke-miterlimit="10"/><path fill="rgb(0 0 128)" stroke="rgb(31 119 180)" paint-order="fill" d="M 174.88311767578125 451.71893310546875 L 181.88311767578125 451.71893310546875 L 181.88311767578125 458.71893310546875 L 174.88311767578125 458.71893310546875 L 174.88311767578125 451.71893310546875 Z" clip-path="url(#ARVMETrDKFIN)" stroke-linejoin="bevel" stroke-miterlimit="10"/><path fill="rgb(0 0 128)" stroke="rgb(31 119 180)" paint-order="fill" d="M 221.50650024414062 452.7567443847656 L 228.50650024414062 452.7567443847656 L 228.50650024414062 459.7567443847656 L 221.50650024414062 459.7567443847656 L 221.50650024414062 452.7567443847656 Z" clip-path="url(#ARVMETrDKFIN)" stroke-linejoin="bevel" stroke-miterlimit="10"/><path fill="rgb(0 0 128)" stroke="rgb(31 119 180)" paint-order="fill" d="M 268.1298828125 452.2378234863281 L 275.1298828125 452.2378234863281 L 275.1298828125 459.2378234863281 L 268.1298828125 459.2378234863281 L 268.1298828125 452.2378234863281 Z" clip-path="url(#ARVMETrDKFIN)" stroke-linejoin="bevel" stroke-miterlimit="10"/><path fill="rgb(0 0 128)" stroke="rgb(31 119 180)" paint-order="fill" d="M 314.75323486328125 452.2378234863281 L 321.75323486328125 452.2378234863281 L 321.75323486328125 459.2378234863281 L 314.75323486328125 459.2378234863281 L 314.75323486328125 452.2378234863281 Z" clip-path="url(#ARVMETrDKFIN)" stroke-linejoin="bevel" stroke-miterlimit="10"/><path fill="rgb(0 0 128)" stroke="rgb(31 119 180)" paint-order="fill" d="M 361.3766174316406 449.64324951171875 L 368.3766174316406 449.64324951171875 L 368.3766174316406 456.64324951171875 L 361.3766174316406 456.64324951171875 L 361.3766174316406 449.64324951171875 Z" clip-path="url(#ARVMETrDKFIN)" stroke-linejoin="bevel" stroke-miterlimit="10"/><path fill="rgb(0 0 128)" stroke="rgb(31 119 180)" paint-order="fill" d="M 408 448.60540771484375 L 415 448.60540771484375 L 415 455.60540771484375 L 408 455.60540771484375 L 408 448.60540771484375 Z" clip-path="url(#ARVMETrDKFIN)" stroke-linejoin="bevel" stroke-miterlimit="10"/><path fill="rgb(0 0 128)" stroke="rgb(31 119 180)" paint-order="fill" d="M 454.6233825683594 420.5837707519531 L 461.6233825683594 420.5837707519531 L 461.6233825683594 427.5837707519531 L 454.6233825683594 427.5837707519531 L 454.6233825683594 420.5837707519531 Z" clip-path="url(#ARVMETrDKFIN)" stroke-linejoin="bevel" stroke-miterlimit="10"/><path fill="rgb(0 0 128)" stroke="rgb(31 119 180)" paint-order="fill" d="M 501.24676513671875 417.47027587890625 L 508.24676513671875 417.47027587890625 L 508.24676513671875 424.47027587890625 L 501.24676513671875 424.47027587890625 L 501.24676513671875 417.47027587890625 Z" clip-path="url(#ARVMETrDKFIN)" stroke-linejoin="bevel" stroke-miterlimit="10"/><path fill="rgb(0 0 128)" stroke="rgb(31 119 180)" paint-order="fill" d="M 547.8701171875 417.47027587890625 L 554.8701171875 417.47027587890625 L 554.8701171875 424.47027587890625 L 547.8701171875 424.47027587890625 L 547.8701171875 417.47027587890625 Z" clip-path="url(#ARVMETrDKFIN)" stroke-linejoin="bevel" stroke-miterlimit="10"/><path fill="rgb(0 0 128)" stroke="rgb(31 119 180)" paint-order="fill" d="M 594.4935302734375 416.95135498046875 L 601.4935302734375 416.95135498046875 L 601.4935302734375 423.95135498046875 L 594.4935302734375 423.95135498046875 L 594.4935302734375 416.95135498046875 Z" clip-path="url(#ARVMETrDKFIN)" stroke-linejoin="bevel" stroke-miterlimit="10"/><path fill="rgb(0 0 128)" stroke="rgb(31 119 180)" paint-order="fill" d="M 641.1168823242188 413.83782958984375 L 648.1168823242188 413.83782958984375 L 648.1168823242188 420.83782958984375 L 641.1168823242188 420.83782958984375 L 641.1168823242188 413.83782958984375 Z" clip-path="url(#ARVMETrDKFIN)" stroke-linejoin="bevel" stroke-miterlimit="10"/><path fill="rgb(0 0 128)" stroke="rgb(31 119 180)" paint-order="fill" d="M 687.740234375 415.91351318359375 L 694.740234375 415.91351318359375 L 694.740234375 422.91351318359375 L 687.740234375 422.91351318359375 L 687.740234375 415.91351318359375 Z" clip-path="url(#ARVMETrDKFIN)" stroke-linejoin="bevel" stroke-miterlimit="10"/><path fill="rgb(0 0 128)" stroke="rgb(31 119 180)" paint-order="fill" d="M 734.3636474609375 413.83782958984375 L 741.3636474609375 413.83782958984375 L 741.3636474609375 420.83782958984375 L 734.3636474609375 420.83782958984375 L 734.3636474609375 413.83782958984375 Z" clip-path="url(#ARVMETrDKFIN)" stroke-linejoin="bevel" stroke-miterlimit="10"/><path fill="none" stroke="navy" paint-order="fill" d="M 85.13636016845703 489.4675598144531 L 131.75973510742188 456.7756652832031 L 178.38311767578125 455.21893310546875 L 225.00650024414062 456.2567443847656 L 271.6298828125 455.7378234863281 L 318.25323486328125 455.7378234863281 L 364.8766174316406 453.14324951171875 L 411.5 452.10540771484375 L 458.1233825683594 424.0837707519531 L 504.74676513671875 420.97027587890625 L 551.3701171875 420.97027587890625 L 597.9935302734375 420.45135498046875 L 644.6168823242188 417.33782958984375 L 691.240234375 419.41351318359375 L 737.8636474609375 417.33782958984375" stroke-linejoin="bevel" stroke-miterlimit="10" clip-path="url(#UpeTDfIeaiiN)"/><path fill="none" stroke="none"/><path fill="rgb(0 0 128)" stroke="rgb(31 119 180)" paint-order="fill" d="M 86.44886016845703 492.9675598144531 L 86.44886016845703 490.7800598144531 L 88.63636016845703 490.7800598144531 L 88.63636016845703 488.1550598144531 L 86.44886016845703 488.1550598144531 L 86.44886016845703 485.9675598144531 L 83.82386016845703 485.9675598144531 L 83.82386016845703 488.1550598144531 L 81.63636016845703 488.1550598144531 L 81.63636016845703 490.7800598144531 L 83.82386016845703 490.7800598144531 L 83.82386016845703 492.9675598144531 Z" clip-path="url(#VqIAGAoAtJRX)" stroke-linejoin="bevel" stroke-miterlimit="10"/><path fill="none" stroke="none"/><path fill="rgb(0 0 128)" stroke="rgb(31 119 180)" paint-order="fill" d="M 133.07223510742188 459.7567443847656 L 133.07223510742188 457.5692443847656 L 135.25973510742188 457.5692443847656 L 135.25973510742188 454.9442443847656 L 133.07223510742188 454.9442443847656 L 133.07223510742188 452.7567443847656 L 130.44723510742188 452.7567443847656 L 130.44723510742188 454.9442443847656 L 128.25973510742188 454.9442443847656 L 128.25973510742188 457.5692443847656 L 130.44723510742188 457.5692443847656 L 130.44723510742188 459.7567443847656 Z" clip-path="url(#VqIAGAoAtJRX)" stroke-linejoin="bevel" stroke-miterlimit="10"/><path fill="none" stroke="none"/><path fill="rgb(0 0 128)" stroke="rgb(31 119 180)" paint-order="fill" d="M 179.69561767578125 458.20001220703125 L 179.69561767578125 456.01251220703125 L 181.88311767578125 456.01251220703125 L 181.88311767578125 453.38751220703125 L 179.69561767578125 453.38751220703125 L 179.69561767578125 451.20001220703125 L 177.07061767578125 451.20001220703125 L 177.07061767578125 453.38751220703125 L 174.88311767578125 453.38751220703125 L 174.88311767578125 456.01251220703125 L 177.07061767578125 456.01251220703125 L 177.07061767578125 458.20001220703125 Z" clip-path="url(#VqIAGAoAtJRX)" stroke-linejoin="bevel" stroke-miterlimit="10"/><path fill="none" stroke="none"/><path fill="rgb(0 0 128)" stroke="rgb(31 119 180)" paint-order="fill" d="M 366.1891174316406 456.12432861328125 L 366.1891174316406 453.93682861328125 L 368.3766174316406 453.93682861328125 L 368.3766174316406 451.31182861328125 L 366.1891174316406 451.31182861328125 L 366.1891174316406 449.12432861328125 L 363.5641174316406 449.12432861328125 L 363.5641174316406 451.31182861328125 L 361.3766174316406 451.31182861328125 L 361.3766174316406 453.93682861328125 L 363.5641174316406 453.93682861328125 L 363.5641174316406 456.12432861328125 Z" clip-path="url(#VqIAGAoAtJRX)" stroke-linejoin="bevel" stroke-miterlimit="10"/><path fill="none" stroke="none"/><path fill="rgb(0 0 128)" stroke="rgb(31 119 180)" paint-order="fill" d="M 552.6826171875 416.1675720214844 L 552.6826171875 413.9800720214844 L 554.8701171875 413.9800720214844 L 554.8701171875 411.3550720214844 L 552.6826171875 411.3550720214844 L 552.6826171875 409.1675720214844 L 550.0576171875 409.1675720214844 L 550.0576171875 411.3550720214844 L 547.8701171875 411.3550720214844 L 547.8701171875 413.9800720214844 L 550.0576171875 413.9800720214844 L 550.0576171875 416.1675720214844 Z" clip-path="url(#VqIAGAoAtJRX)" stroke-linejoin="bevel" stroke-miterlimit="10"/><path fill="none" stroke="none"/><path fill="rgb(0 0 128)" stroke="rgb(31 119 180)" paint-order="fill" d="M 739.1761474609375 419.79998779296875 L 739.1761474609375 417.61248779296875 L 741.3636474609375 417.61248779296875 L 741.3636474609375 414.98748779296875 L 739.1761474609375 414.98748779296875 L 739.1761474609375 412.79998779296875 L 736.5511474609375 412.79998779296875 L 736.5511474609375 414.98748779296875 L 734.3636474609375 414.98748779296875 L 734.3636474609375 417.61248779296875 L 736.5511474609375 417.61248779296875 L 736.5511474609375 419.79998779296875 Z" clip-path="url(#VqIAGAoAtJRX)" stroke-linejoin="bevel" stroke-miterlimit="10"/><path fill="none" stroke="navy" paint-order="fill" d="M 85.13636016845703 489.4675598144531 L 131.75973510742188 456.2567443847656 L 178.38311767578125 454.70001220703125 L 364.8766174316406 452.62432861328125 L 551.3701171875 412.6675720214844 L 737.8636474609375 416.29998779296875" stroke-linejoin="bevel" stroke-miterlimit="10" clip-path="url(#bwbJCfTETsQu)"/><path fill="rgb(176 196 222)" stroke="rgb(31 119 180)" paint-order="fill" d="M 81.63636016845703 307.79098961403866 L 88.63636016845703 307.79098961403866 L 85.13636016845703 301.7288117875476 Z" clip-path="url(#aVArboNGXDUd)" stroke-linejoin="bevel" stroke-miterlimit="10"/><path fill="rgb(176 196 222)" stroke="rgb(31 119 180)" paint-order="fill" d="M 128.25973510742188 292.2234236960699 L 135.25973510742188 292.2234236960699 L 131.75973510742188 286.16124586957886 Z" clip-path="url(#aVArboNGXDUd)" stroke-linejoin="bevel" stroke-miterlimit="10"/><path fill="rgb(176 196 222)" stroke="rgb(31 119 180)" paint-order="fill" d="M 174.88311767578125 271.4666793113043 L 181.88311767578125 271.4666793113043 L 178.38311767578125 265.40450148481324 Z" clip-path="url(#aVArboNGXDUd)" stroke-linejoin="bevel" stroke-miterlimit="10"/><path fill="rgb(176 196 222)" stroke="rgb(31 119 180)" paint-order="fill" d="M 221.50650024414062 261.0882918601324 L 228.50650024414062 261.0882918601324 L 225.00650024414062 255.02611403364136 Z" clip-path="url(#aVArboNGXDUd)" stroke-linejoin="bevel" stroke-miterlimit="10"/><path fill="rgb(176 196 222)" stroke="rgb(31 119 180)" paint-order="fill" d="M 268.1298828125 229.95316002419494 L 275.1298828125 229.95316002419494 L 271.6298828125 223.89098219770386 Z" clip-path="url(#aVArboNGXDUd)" stroke-linejoin="bevel" stroke-miterlimit="10"/><path fill="rgb(176 196 222)" stroke="rgb(31 119 180)" paint-order="fill" d="M 314.75323486328125 219.57477257302307 L 321.75323486328125 219.57477257302307 L 318.25323486328125 213.512594746532 Z" clip-path="url(#aVArboNGXDUd)" stroke-linejoin="bevel" stroke-miterlimit="10"/><path fill="rgb(176 196 222)" stroke="rgb(31 119 180)" paint-order="fill" d="M 361.3766174316406 209.19640038064026 L 368.3766174316406 209.19640038064026 L 364.8766174316406 203.13422255414918 Z" clip-path="url(#aVArboNGXDUd)" stroke-linejoin="bevel" stroke-miterlimit="10"/><path fill="rgb(176 196 222)" stroke="rgb(31 119 180)" paint-order="fill" d="M 408 198.81802818825744 L 415 198.81802818825744 L 411.5 192.75585036176636 Z" clip-path="url(#aVArboNGXDUd)" stroke-linejoin="bevel" stroke-miterlimit="10"/><path fill="rgb(176 196 222)" stroke="rgb(31 119 180)" paint-order="fill" d="M 454.6233825683594 183.2504622702887 L 461.6233825683594 183.2504622702887 L 458.1233825683594 177.1882844437976 Z" clip-path="url(#aVArboNGXDUd)" stroke-linejoin="bevel" stroke-miterlimit="10"/><path fill="rgb(176 196 222)" stroke="rgb(31 119 180)" paint-order="fill" d="M 501.24676513671875 167.68288109353088 L 508.24676513671875 167.68288109353088 L 504.74676513671875 161.6207032670398 Z" clip-path="url(#aVArboNGXDUd)" stroke-linejoin="bevel" stroke-miterlimit="10"/><path fill="rgb(176 196 222)" stroke="rgb(31 119 180)" paint-order="fill" d="M 547.8701171875 120.98018333962463 L 554.8701171875 120.98018333962463 L 551.3701171875 114.91800551313355 Z" clip-path="url(#aVArboNGXDUd)" stroke-linejoin="bevel" stroke-miterlimit="10"/><path fill="rgb(176 196 222)" stroke="rgb(31 119 180)" paint-order="fill" d="M 594.4935302734375 105.41261742165588 L 601.4935302734375 105.41261742165588 L 597.9935302734375 99.3504395951648 Z" clip-path="url(#aVArboNGXDUd)" stroke-linejoin="bevel" stroke-miterlimit="10"/><path fill="rgb(176 196 222)" stroke="rgb(31 119 180)" paint-order="fill" d="M 641.1168823242188 100.22343132546447 L 648.1168823242188 100.22343132546447 L 644.6168823242188 94.1612534989734 Z" clip-path="url(#aVArboNGXDUd)" stroke-linejoin="bevel" stroke-miterlimit="10"/><path fill="rgb(176 196 222)" stroke="rgb(31 119 180)" paint-order="fill" d="M 687.740234375 79.46667168190979 L 694.740234375 79.46667168190979 L 691.240234375 73.4044938554187 Z" clip-path="url(#aVArboNGXDUd)" stroke-linejoin="bevel" stroke-miterlimit="10"/><path fill="rgb(176 196 222)" stroke="rgb(31 119 180)" paint-order="fill" d="M 734.3636474609375 53.52072594216369 L 741.3636474609375 53.52072594216369 L 737.8636474609375 47.45854811567262 Z" clip-path="url(#aVArboNGXDUd)" stroke-linejoin="bevel" stroke-miterlimit="10"/><path fill="none" stroke="lightsteelblue" paint-order="fill" d="M 85.13636016845703 305.770263671875 L 131.75973510742188 290.20269775390625 L 178.38311767578125 269.4459533691406 L 225.00650024414062 259.06756591796875 L 271.6298828125 227.93243408203125 L 318.25323486328125 217.55404663085938 L 364.8766174316406 207.17567443847656 L 411.5 196.79730224609375 L 458.1233825683594 181.229736328125 L 504.74676513671875 165.6621551513672 L 551.3701171875 118.95945739746094 L 597.9935302734375 103.39189147949219 L 644.6168823242188 98.20270538330078 L 691.240234375 77.4459457397461 L 737.8636474609375 51.5" stroke-linejoin="bevel" stroke-miterlimit="10" clip-path="url(#askSXJUvPluA)"/><path fill="rgb(176 196 222)" stroke="rgb(31 119 180)" paint-order="fill" d="M 81.63636016845703 328.2162170410156 L 88.63636016845703 328.2162170410156 L 88.63636016845703 335.2162170410156 L 81.63636016845703 335.2162170410156 L 81.63636016845703 328.2162170410156 Z" clip-path="url(#pasbMnmtJwaF)" stroke-linejoin="bevel" stroke-miterlimit="10"/><path fill="rgb(176 196 222)" stroke="rgb(31 119 180)" paint-order="fill" d="M 128.25973510742188 317.83782958984375 L 135.25973510742188 317.83782958984375 L 135.25973510742188 324.83782958984375 L 128.25973510742188 324.83782958984375 L 128.25973510742188 317.83782958984375 Z" clip-path="url(#pasbMnmtJwaF)" stroke-linejoin="bevel" stroke-miterlimit="10"/><path fill="rgb(176 196 222)" stroke="rgb(31 119 180)" paint-order="fill" d="M 174.88311767578125 323.02703857421875 L 181.88311767578125 323.02703857421875 L 181.88311767578125 330.02703857421875 L 174.88311767578125 330.02703857421875 L 174.88311767578125 323.02703857421875 Z" clip-path="url(#pasbMnmtJwaF)" stroke-linejoin="bevel" stroke-miterlimit="10"/><path fill="rgb(176 196 222)" stroke="rgb(31 119 180)" paint-order="fill" d="M 221.50650024414062 323.02703857421875 L 228.50650024414062 323.02703857421875 L 228.50650024414062 330.02703857421875 L 221.50650024414062 330.02703857421875 L 221.50650024414062 323.02703857421875 Z" clip-path="url(#pasbMnmtJwaF)" stroke-linejoin="bevel" stroke-miterlimit="10"/><path fill="rgb(176 196 222)" stroke="rgb(31 119 180)" paint-order="fill" d="M 268.1298828125 323.02703857421875 L 275.1298828125 323.02703857421875 L 275.1298828125 330.02703857421875 L 268.1298828125 330.02703857421875 L 268.1298828125 323.02703857421875 Z" clip-path="url(#pasbMnmtJwaF)" stroke-linejoin="bevel" stroke-miterlimit="10"/><path fill="rgb(176 196 222)" stroke="rgb(31 119 180)" paint-order="fill" d="M 314.75323486328125 317.83782958984375 L 321.75323486328125 317.83782958984375 L 321.75323486328125 324.83782958984375 L 314.75323486328125 324.83782958984375 L 314.75323486328125 317.83782958984375 Z" clip-path="url(#pasbMnmtJwaF)" stroke-linejoin="bevel" stroke-miterlimit="10"/><path fill="rgb(176 196 222)" stroke="rgb(31 119 180)" paint-order="fill" d="M 361.3766174316406 317.83782958984375 L 368.3766174316406 317.83782958984375 L 368.3766174316406 324.83782958984375 L 361.3766174316406 324.83782958984375 L 361.3766174316406 317.83782958984375 Z" clip-path="url(#pasbMnmtJwaF)" stroke-linejoin="bevel" stroke-miterlimit="10"/><path fill="rgb(176 196 222)" stroke="rgb(31 119 180)" paint-order="fill" d="M 408 317.83782958984375 L 415 317.83782958984375 L 415 324.83782958984375 L 408 324.83782958984375 L 408 317.83782958984375 Z" clip-path="url(#pasbMnmtJwaF)" stroke-linejoin="bevel" stroke-miterlimit="10"/><path fill="rgb(176 196 222)" stroke="rgb(31 119 180)" paint-order="fill" d="M 454.6233825683594 317.83782958984375 L 461.6233825683594 317.83782958984375 L 461.6233825683594 324.83782958984375 L 454.6233825683594 324.83782958984375 L 454.6233825683594 317.83782958984375 Z" clip-path="url(#pasbMnmtJwaF)" stroke-linejoin="bevel" stroke-miterlimit="10"/><path fill="rgb(176 196 222)" stroke="rgb(31 119 180)" paint-order="fill" d="M 501.24676513671875 317.83782958984375 L 508.24676513671875 317.83782958984375 L 508.24676513671875 324.83782958984375 L 501.24676513671875 324.83782958984375 L 501.24676513671875 317.83782958984375 Z" clip-path="url(#pasbMnmtJwaF)" stroke-linejoin="bevel" stroke-miterlimit="10"/><path fill="rgb(176 196 222)" stroke="rgb(31 119 180)" paint-order="fill" d="M 547.8701171875 312.6486511230469 L 554.8701171875 312.6486511230469 L 554.8701171875 319.6486511230469 L 547.8701171875 319.6486511230469 L 547.8701171875 312.6486511230469 Z" clip-path="url(#pasbMnmtJwaF)" stroke-linejoin="bevel" stroke-miterlimit="10"/><path fill="rgb(176 196 222)" stroke="rgb(31 119 180)" paint-order="fill" d="M 594.4935302734375 302.270263671875 L 601.4935302734375 302.270263671875 L 601.4935302734375 309.270263671875 L 594.4935302734375 309.270263671875 L 594.4935302734375 302.270263671875 Z" clip-path="url(#pasbMnmtJwaF)" stroke-linejoin="bevel" stroke-miterlimit="10"/><path fill="rgb(176 196 222)" stroke="rgb(31 119 180)" paint-order="fill" d="M 641.1168823242188 307.45947265625 L 648.1168823242188 307.45947265625 L 648.1168823242188 314.45947265625 L 641.1168823242188 314.45947265625 L 641.1168823242188 307.45947265625 Z" clip-path="url(#pasbMnmtJwaF)" stroke-linejoin="bevel" stroke-miterlimit="10"/><path fill="rgb(176 196 222)" stroke="rgb(31 119 180)" paint-order="fill" d="M 687.740234375 302.270263671875 L 694.740234375 302.270263671875 L 694.740234375 309.270263671875 L 687.740234375 309.270263671875 L 687.740234375 302.270263671875 Z" clip-path="url(#pasbMnmtJwaF)" stroke-linejoin="bevel" stroke-miterlimit="10"/><path fill="rgb(176 196 222)" stroke="rgb(31 119 180)" paint-order="fill" d="M 734.3636474609375 297.0810852050781 L 741.3636474609375 297.0810852050781 L 741.3636474609375 304.0810852050781 L 734.3636474609375 304.0810852050781 L 734.3636474609375 297.0810852050781 Z" clip-path="url(#pasbMnmtJwaF)" stroke-linejoin="bevel" stroke-miterlimit="10"/><path fill="none" stroke="lightsteelblue" paint-order="fill" d="M 85.13636016845703 331.7162170410156 L 131.75973510742188 321.33782958984375 L 178.38311767578125 326.52703857421875 L 225.00650024414062 326.52703857421875 L 271.6298828125 326.52703857421875 L 318.25323486328125 321.33782958984375 L 364.8766174316406 321.33782958984375 L 411.5 321.33782958984375 L 458.1233825683594 321.33782958984375 L 504.74676513671875 321.33782958984375 L 551.3701171875 316.1486511230469 L 597.9935302734375 305.770263671875 L 644.6168823242188 310.95947265625 L 691.240234375 305.770263671875 L 737.8636474609375 300.5810852050781" stroke-linejoin="bevel" stroke-miterlimit="10" clip-path="url(#SDLUxkQEBXGM)"/><path fill="none" stroke="black" paint-order="fill" d="M 52.5 555.5 L 770.5 555.5" stroke-linejoin="bevel" stroke-miterlimit="10"/><path fill="none" stroke="black" paint-order="fill" d="M 85.5 561.5 L 85.5 553.5 M 131.5 561.5 L 131.5 553.5 M 178.5 561.5 L 178.5 553.5 M 225.5 561.5 L 225.5 553.5 M 271.5 561.5 L 271.5 553.5 M 318.5 561.5 L 318.5 553.5 M 364.5 561.5 L 364.5 553.5 M 411.5 561.5 L 411.5 553.5 M 458.5 561.5 L 458.5 553.5 M 504.5 561.5 L 504.5 553.5 M 551.5 561.5 L 551.5 553.5 M 597.5 561.5 L 597.5 553.5 M 644.5 561.5 L 644.5 553.5 M 691.5 561.5 L 691.5 553.5 M 737.5 561.5 L 737.5 553.5" stroke-linejoin="bevel" stroke-miterlimit="10"/><path fill="none" stroke="black" paint-order="fill" d="" stroke-linejoin="bevel" stroke-miterlimit="10"/><text fill="#444444" stroke="none" font-family="helvetica" font-size="11px" font-style="normal" font-weight="normal" text-decoration="normal" x="81.57752227783203" y="573.89013671875" text-anchor="start" dominant-baseline="alphabetic" transform="matrix(1, 0, 0, 1, 0.5, 0.5)">2</text><text fill="none" stroke="rgb(0 0 0 / 0)" font-family="helvetica" font-size="11px" font-style="normal" font-weight="normal" text-decoration="normal" x="81.57752227783203" y="573.89013671875" text-anchor="start" dominant-baseline="alphabetic" transform="matrix(1, 0, 0, 1, 0.5, 0.5)" stroke-linejoin="bevel" stroke-miterlimit="10">2</text><text fill="#444444" stroke="none" font-family="helvetica" font-size="11px" font-style="normal" font-weight="normal" text-decoration="normal" x="128.20089721679688" y="573.89013671875" text-anchor="start" dominant-baseline="alphabetic" transform="matrix(1, 0, 0, 1, 0.5, 0.5)">3</text><text fill="none" stroke="rgb(0 0 0 / 0)" font-family="helvetica" font-size="11px" font-style="normal" font-weight="normal" text-decoration="normal" x="128.20089721679688" y="573.89013671875" text-anchor="start" dominant-baseline="alphabetic" transform="matrix(1, 0, 0, 1, 0.5, 0.5)" stroke-linejoin="bevel" stroke-miterlimit="10">3</text><text fill="#444444" stroke="none" font-family="helvetica" font-size="11px" font-style="normal" font-weight="normal" text-decoration="normal" x="174.82427978515625" y="573.89013671875" text-anchor="start" dominant-baseline="alphabetic" transform="matrix(1, 0, 0, 1, 0.5, 0.5)">4</text><text fill="none" stroke="rgb(0 0 0 / 0)" font-family="helvetica" font-size="11px" font-style="normal" font-weight="normal" text-decoration="normal" x="174.82427978515625" y="573.89013671875" text-anchor="start" dominant-baseline="alphabetic" transform="matrix(1, 0, 0, 1, 0.5, 0.5)" stroke-linejoin="bevel" stroke-miterlimit="10">4</text><text fill="#444444" stroke="none" font-family="helvetica" font-size="11px" font-style="normal" font-weight="normal" text-decoration="normal" x="221.44766235351562" y="573.89013671875" text-anchor="start" dominant-baseline="alphabetic" transform="matrix(1, 0, 0, 1, 0.5, 0.5)">5</text><text fill="none" stroke="rgb(0 0 0 / 0)" font-family="helvetica" font-size="11px" font-style="normal" font-weight="normal" text-decoration="normal" x="221.44766235351562" y="573.89013671875" text-anchor="start" dominant-baseline="alphabetic" transform="matrix(1, 0, 0, 1, 0.5, 0.5)" stroke-linejoin="bevel" stroke-miterlimit="10">5</text><text fill="#444444" stroke="none" font-family="helvetica" font-size="11px" font-style="normal" font-weight="normal" text-decoration="normal" x="268.071044921875" y="573.89013671875" text-anchor="start" dominant-baseline="alphabetic" transform="matrix(1, 0, 0, 1, 0.5, 0.5)">6</text><text fill="none" stroke="rgb(0 0 0 / 0)" font-family="helvetica" font-size="11px" font-style="normal" font-weight="normal" text-decoration="normal" x="268.071044921875" y="573.89013671875" text-anchor="start" dominant-baseline="alphabetic" transform="matrix(1, 0, 0, 1, 0.5, 0.5)" stroke-linejoin="bevel" stroke-miterlimit="10">6</text><text fill="#444444" stroke="none" font-family="helvetica" font-size="11px" font-style="normal" font-weight="normal" text-decoration="normal" x="314.69439697265625" y="573.89013671875" text-anchor="start" dominant-baseline="alphabetic" transform="matrix(1, 0, 0, 1, 0.5, 0.5)">7</text><text fill="none" stroke="rgb(0 0 0 / 0)" font-family="helvetica" font-size="11px" font-style="normal" font-weight="normal" text-decoration="normal" x="314.69439697265625" y="573.89013671875" text-anchor="start" dominant-baseline="alphabetic" transform="matrix(1, 0, 0, 1, 0.5, 0.5)" stroke-linejoin="bevel" stroke-miterlimit="10">7</text><text fill="#444444" stroke="none" font-family="helvetica" font-size="11px" font-style="normal" font-weight="normal" text-decoration="normal" x="361.3177795410156" y="573.89013671875" text-anchor="start" dominant-baseline="alphabetic" transform="matrix(1, 0, 0, 1, 0.5, 0.5)">8</text><text fill="none" stroke="rgb(0 0 0 / 0)" font-family="helvetica" font-size="11px" font-style="normal" font-weight="normal" text-decoration="normal" x="361.3177795410156" y="573.89013671875" text-anchor="start" dominant-baseline="alphabetic" transform="matrix(1, 0, 0, 1, 0.5, 0.5)" stroke-linejoin="bevel" stroke-miterlimit="10">8</text><text fill="#444444" stroke="none" font-family="helvetica" font-size="11px" font-style="normal" font-weight="normal" text-decoration="normal" x="407.941162109375" y="573.89013671875" text-anchor="start" dominant-baseline="alphabetic" transform="matrix(1, 0, 0, 1, 0.5, 0.5)">9</text><text fill="none" stroke="rgb(0 0 0 / 0)" font-family="helvetica" font-size="11px" font-style="normal" font-weight="normal" text-decoration="normal" x="407.941162109375" y="573.89013671875" text-anchor="start" dominant-baseline="alphabetic" transform="matrix(1, 0, 0, 1, 0.5, 0.5)" stroke-linejoin="bevel" stroke-miterlimit="10">9</text><text fill="#444444" stroke="none" font-family="helvetica" font-size="11px" font-style="normal" font-weight="normal" text-decoration="normal" x="451.5057067871094" y="573.89013671875" text-anchor="start" dominant-baseline="alphabetic" transform="matrix(1, 0, 0, 1, 0.5, 0.5)">10</text><text fill="none" stroke="rgb(0 0 0 / 0)" font-family="helvetica" font-size="11px" font-style="normal" font-weight="normal" text-decoration="normal" x="451.5057067871094" y="573.89013671875" text-anchor="start" dominant-baseline="alphabetic" transform="matrix(1, 0, 0, 1, 0.5, 0.5)" stroke-linejoin="bevel" stroke-miterlimit="10">10</text><text fill="#444444" stroke="none" font-family="helvetica" font-size="11px" font-style="normal" font-weight="normal" text-decoration="normal" x="498.53460693359375" y="573.89013671875" text-anchor="start" dominant-baseline="alphabetic" transform="matrix(1, 0, 0, 1, 0.5, 0.5)">11</text><text fill="none" stroke="rgb(0 0 0 / 0)" font-family="helvetica" font-size="11px" font-style="normal" font-weight="normal" text-decoration="normal" x="498.53460693359375" y="573.89013671875" text-anchor="start" dominant-baseline="alphabetic" transform="matrix(1, 0, 0, 1, 0.5, 0.5)" stroke-linejoin="bevel" stroke-miterlimit="10">11</text><text fill="#444444" stroke="none" font-family="helvetica" font-size="11px" font-style="normal" font-weight="normal" text-decoration="normal" x="544.75244140625" y="573.89013671875" text-anchor="start" dominant-baseline="alphabetic" transform="matrix(1, 0, 0, 1, 0.5, 0.5)">12</text><text fill="none" stroke="rgb(0 0 0 / 0)" font-family="helvetica" font-size="11px" font-style="normal" font-weight="normal" text-decoration="normal" x="544.75244140625" y="573.89013671875" text-anchor="start" dominant-baseline="alphabetic" transform="matrix(1, 0, 0, 1, 0.5, 0.5)" stroke-linejoin="bevel" stroke-miterlimit="10">12</text><text fill="#444444" stroke="none" font-family="helvetica" font-size="11px" font-style="normal" font-weight="normal" text-decoration="normal" x="591.3758544921875" y="573.89013671875" text-anchor="start" dominant-baseline="alphabetic" transform="matrix(1, 0, 0, 1, 0.5, 0.5)">13</text><text fill="none" stroke="rgb(0 0 0 / 0)" font-family="helvetica" font-size="11px" font-style="normal" font-weight="normal" text-decoration="normal" x="591.3758544921875" y="573.89013671875" text-anchor="start" dominant-baseline="alphabetic" transform="matrix(1, 0, 0, 1, 0.5, 0.5)" stroke-linejoin="bevel" stroke-miterlimit="10">13</text><text fill="#444444" stroke="none" font-family="helvetica" font-size="11px" font-style="normal" font-weight="normal" text-decoration="normal" x="637.9992065429688" y="573.89013671875" text-anchor="start" dominant-baseline="alphabetic" transform="matrix(1, 0, 0, 1, 0.5, 0.5)">14</text><text fill="none" stroke="rgb(0 0 0 / 0)" font-family="helvetica" font-size="11px" font-style="normal" font-weight="normal" text-decoration="normal" x="637.9992065429688" y="573.89013671875" text-anchor="start" dominant-baseline="alphabetic" transform="matrix(1, 0, 0, 1, 0.5, 0.5)" stroke-linejoin="bevel" stroke-miterlimit="10">14</text><text fill="#444444" stroke="none" font-family="helvetica" font-size="11px" font-style="normal" font-weight="normal" text-decoration="normal" x="684.62255859375" y="573.89013671875" text-anchor="start" dominant-baseline="alphabetic" transform="matrix(1, 0, 0, 1, 0.5, 0.5)">15</text><text fill="none" stroke="rgb(0 0 0 / 0)" font-family="helvetica" font-size="11px" font-style="normal" font-weight="normal" text-decoration="normal" x="684.62255859375" y="573.89013671875" text-anchor="start" dominant-baseline="alphabetic" transform="matrix(1, 0, 0, 1, 0.5, 0.5)" stroke-linejoin="bevel" stroke-miterlimit="10">15</text><text fill="#444444" stroke="none" font-family="helvetica" font-size="11px" font-style="normal" font-weight="normal" text-decoration="normal" x="731.2459716796875" y="573.89013671875" text-anchor="start" dominant-baseline="alphabetic" transform="matrix(1, 0, 0, 1, 0.5, 0.5)">16</text><text fill="none" stroke="rgb(0 0 0 / 0)" font-family="helvetica" font-size="11px" font-style="normal" font-weight="normal" text-decoration="normal" x="731.2459716796875" y="573.89013671875" text-anchor="start" dominant-baseline="alphabetic" transform="matrix(1, 0, 0, 1, 0.5, 0.5)" stroke-linejoin="bevel" stroke-miterlimit="10">16</text><text fill="#444444" stroke="none" font-family="helvetica" font-size="13px" font-style="italic" font-weight="normal" text-decoration="normal" x="377.02734375" y="593.89013671875" text-anchor="start" dominant-baseline="alphabetic" transform="matrix(1, 0, 0, 1, 0.5, 0.5)">Input length</text><text fill="none" stroke="rgb(0 0 0 / 0)" font-family="helvetica" font-size="13px" font-style="italic" font-weight="normal" text-decoration="normal" x="377.02734375" y="593.89013671875" text-anchor="start" dominant-baseline="alphabetic" transform="matrix(1, 0, 0, 1, 0.5, 0.5)" stroke-linejoin="bevel" stroke-miterlimit="10">Input length</text><path fill="none" stroke="black" paint-order="fill" d="M 52.5 555.5 L 52.5 27.5" stroke-linejoin="bevel" stroke-miterlimit="10"/><path fill="none" stroke="black" paint-order="fill" d="M 46.5 456.5 L 54.5 456.5 M 46.5 352.5 L 54.5 352.5 M 46.5 248.5 L 54.5 248.5 M 46.5 144.5 L 54.5 144.5 M 46.5 41.5 L 54.5 41.5" stroke-linejoin="bevel" stroke-miterlimit="10"/><path fill="none" stroke="black" paint-order="fill" d="M 48.5 477.5 L 52.5 477.5 M 48.5 497.5 L 52.5 497.5 M 48.5 518.5 L 52.5 518.5 M 48.5 539.5 L 52.5 539.5 M 48.5 456.5 L 52.5 456.5 M 48.5 435.5 L 52.5 435.5 M 48.5 414.5 L 52.5 414.5 M 48.5 393.5 L 52.5 393.5 M 48.5 373.5 L 52.5 373.5 M 48.5 352.5 L 52.5 352.5 M 48.5 331.5 L 52.5 331.5 M 48.5 310.5 L 52.5 310.5 M 48.5 290.5 L 52.5 290.5 M 48.5 269.5 L 52.5 269.5 M 48.5 248.5 L 52.5 248.5 M 48.5 227.5 L 52.5 227.5 M 48.5 207.5 L 52.5 207.5 M 48.5 186.5 L 52.5 186.5 M 48.5 165.5 L 52.5 165.5 M 48.5 144.5 L 52.5 144.5 M 48.5 124.5 L 52.5 124.5 M 48.5 103.5 L 52.5 103.5 M 48.5 82.5 L 52.5 82.5 M 48.5 61.5 L 52.5 61.5 M 48.5 41.5 L 52.5 41.5" stroke-linejoin="bevel" stroke-miterlimit="10"/><text fill="#444444" stroke="none" font-family="helvetica" font-size="11px" font-style="normal" font-weight="normal" text-decoration="normal" x="25.70849609375" y="459.7018127441406" text-anchor="start" dominant-baseline="alphabetic" transform="matrix(1, 0, 0, 1, 0.5, 0.5)">0.2</text><text fill="none" stroke="rgb(0 0 0 / 0)" font-family="helvetica" font-size="11px" font-style="normal" font-weight="normal" text-decoration="normal" x="25.70849609375" y="459.7018127441406" text-anchor="start" dominant-baseline="alphabetic" transform="matrix(1, 0, 0, 1, 0.5, 0.5)" stroke-linejoin="bevel" stroke-miterlimit="10">0.2</text><text fill="#444444" stroke="none" font-family="helvetica" font-size="11px" font-style="normal" font-weight="normal" text-decoration="normal" x="25.70849609375" y="355.91802978515625" text-anchor="start" dominant-baseline="alphabetic" transform="matrix(1, 0, 0, 1, 0.5, 0.5)">0.4</text><text fill="none" stroke="rgb(0 0 0 / 0)" font-family="helvetica" font-size="11px" font-style="normal" font-weight="normal" text-decoration="normal" x="25.70849609375" y="355.91802978515625" text-anchor="start" dominant-baseline="alphabetic" transform="matrix(1, 0, 0, 1, 0.5, 0.5)" stroke-linejoin="bevel" stroke-miterlimit="10">0.4</text><text fill="#444444" stroke="none" font-family="helvetica" font-size="11px" font-style="normal" font-weight="normal" text-decoration="normal" x="25.70849609375" y="252.13426208496094" text-anchor="start" dominant-baseline="alphabetic" transform="matrix(1, 0, 0, 1, 0.5, 0.5)">0.6</text><text fill="none" stroke="rgb(0 0 0 / 0)" font-family="helvetica" font-size="11px" font-style="normal" font-weight="normal" text-decoration="normal" x="25.70849609375" y="252.13426208496094" text-anchor="start" dominant-baseline="alphabetic" transform="matrix(1, 0, 0, 1, 0.5, 0.5)" stroke-linejoin="bevel" stroke-miterlimit="10">0.6</text><text fill="#444444" stroke="none" font-family="helvetica" font-size="11px" font-style="normal" font-weight="normal" text-decoration="normal" x="25.70849609375" y="148.35047912597656" text-anchor="start" dominant-baseline="alphabetic" transform="matrix(1, 0, 0, 1, 0.5, 0.5)">0.8</text><text fill="none" stroke="rgb(0 0 0 / 0)" font-family="helvetica" font-size="11px" font-style="normal" font-weight="normal" text-decoration="normal" x="25.70849609375" y="148.35047912597656" text-anchor="start" dominant-baseline="alphabetic" transform="matrix(1, 0, 0, 1, 0.5, 0.5)" stroke-linejoin="bevel" stroke-miterlimit="10">0.8</text><text fill="#444444" stroke="none" font-family="helvetica" font-size="11px" font-style="normal" font-weight="normal" text-decoration="normal" x="34.88232421875" y="44.566688537597656" text-anchor="start" dominant-baseline="alphabetic" transform="matrix(1, 0, 0, 1, 0.5, 0.5)">1</text><text fill="none" stroke="rgb(0 0 0 / 0)" font-family="helvetica" font-size="11px" font-style="normal" font-weight="normal" text-decoration="normal" x="34.88232421875" y="44.566688537597656" text-anchor="start" dominant-baseline="alphabetic" transform="matrix(1, 0, 0, 1, 0.5, 0.5)" stroke-linejoin="bevel" stroke-miterlimit="10">1</text><text fill="#444444" stroke="none" font-family="helvetica" font-size="13px" font-style="italic" font-weight="normal" text-decoration="normal" x="-42.2578125" y="288" text-anchor="start" dominant-baseline="alphabetic" transform="matrix(6.123233995736766e-17, -1, 1, 6.123233995736766e-17, -272.79150390625, 309.20849609375)">Runtime/ millisecond</text><text fill="none" stroke="rgb(0 0 0 / 0)" font-family="helvetica" font-size="13px" font-style="italic" font-weight="normal" text-decoration="normal" x="-42.2578125" y="288" text-anchor="start" dominant-baseline="alphabetic" transform="matrix(6.123233995736766e-17, -1, 1, 6.123233995736766e-17, -272.79150390625, 309.20849609375)" stroke-linejoin="bevel" stroke-miterlimit="10">Runtime/ millisecond</text><path fill="rgb(255 255 255 / 0.9490196078431372)" stroke="rgb(229 229 229 / 0.5019607843137255)" paint-order="fill" d="M 62.5 37.5 L 251.5 37.5 L 251.5 212.5 L 62.5 212.5 L 62.5 37.5 Z" clip-path="url(#ntavIbgGnvzB)" stroke-linejoin="bevel" stroke-miterlimit="10"/><path fill="rgb(0 0 128)" stroke="rgb(31 119 180)" paint-order="fill" d="M 78.5 79.8094010767585 L 86.5 79.8094010767585 L 82.5 72.88119784648299 Z" clip-path="url(#ntavIbgGnvzB)" stroke-linejoin="bevel" stroke-miterlimit="10"/><path fill="none" stroke="navy" paint-order="fill" d="M 72.5 77.5 L 92.5 77.5" stroke-linejoin="bevel" stroke-miterlimit="10" clip-path="url(#ntavIbgGnvzB)"/><g clip-path="url(#ntavIbgGnvzB)"><text fill="#444444" stroke="none" font-family="helvetica" font-size="13px" font-style="normal" font-weight="normal" text-decoration="normal" x="0" y="4.5" text-anchor="start" dominant-baseline="alphabetic" transform="matrix(1, 0, 0, 1, 97.5, 77.5)">mimc/ noir-bb</text></g><g clip-path="url(#ntavIbgGnvzB)"><text fill="none" stroke="rgb(0 0 0 / 0)" font-family="helvetica" font-size="13px" font-style="normal" font-weight="normal" text-decoration="normal" x="0" y="4.5" text-anchor="start" dominant-baseline="alphabetic" transform="matrix(1, 0, 0, 1, 97.5, 77.5)" stroke-linejoin="bevel" stroke-miterlimit="10">mimc/ noir-bb</text></g><path fill="rgb(0 0 128)" stroke="rgb(31 119 180)" paint-order="fill" d="M 86.5 100.5 A 4 4 0 0 1 78.5 100.5 A 4 4 0 0 1 86.5 100.5" clip-path="url(#ntavIbgGnvzB)" stroke-linejoin="bevel" stroke-miterlimit="10"/><path fill="none" stroke="navy" paint-order="fill" d="M 72.5 100.5 L 92.5 100.5" stroke-linejoin="bevel" stroke-miterlimit="10" clip-path="url(#ntavIbgGnvzB)"/><g clip-path="url(#ntavIbgGnvzB)"><text fill="#444444" stroke="none" font-family="helvetica" font-size="13px" font-style="normal" font-weight="normal" text-decoration="normal" x="0" y="4.5" text-anchor="start" dominant-baseline="alphabetic" transform="matrix(1, 0, 0, 1, 97.5, 100.5)">griffin/ noir-bb</text></g><g clip-path="url(#ntavIbgGnvzB)"><text fill="none" stroke="rgb(0 0 0 / 0)" font-family="helvetica" font-size="13px" font-style="normal" font-weight="normal" text-decoration="normal" x="0" y="4.5" text-anchor="start" dominant-baseline="alphabetic" transform="matrix(1, 0, 0, 1, 97.5, 100.5)" stroke-linejoin="bevel" stroke-miterlimit="10">griffin/ noir-bb</text></g><path fill="rgb(0 0 128)" stroke="rgb(31 119 180)" paint-order="fill" d="M 78.5 119.5 L 86.5 119.5 L 86.5 127.5 L 78.5 127.5 L 78.5 119.5 Z" clip-path="url(#ntavIbgGnvzB)" stroke-linejoin="bevel" stroke-miterlimit="10"/><path fill="none" stroke="navy" paint-order="fill" d="M 72.5 123.5 L 92.5 123.5" stroke-linejoin="bevel" stroke-miterlimit="10" clip-path="url(#ntavIbgGnvzB)"/><g clip-path="url(#ntavIbgGnvzB)"><text fill="#444444" stroke="none" font-family="helvetica" font-size="13px" font-style="normal" font-weight="normal" text-decoration="normal" x="0" y="4.5" text-anchor="start" dominant-baseline="alphabetic" transform="matrix(1, 0, 0, 1, 97.5, 123.5)">poseidon/ noir-bb</text></g><g clip-path="url(#ntavIbgGnvzB)"><text fill="none" stroke="rgb(0 0 0 / 0)" font-family="helvetica" font-size="13px" font-style="normal" font-weight="normal" text-decoration="normal" x="0" y="4.5" text-anchor="start" dominant-baseline="alphabetic" transform="matrix(1, 0, 0, 1, 97.5, 123.5)" stroke-linejoin="bevel" stroke-miterlimit="10">poseidon/ noir-bb</text></g><path fill="none" stroke="none"/><path fill="rgb(0 0 128)" stroke="rgb(31 119 180)" paint-order="fill" d="M 84 150.5 L 84 148 L 86.5 148 L 86.5 145 L 84 145 L 84 142.5 L 81 142.5 L 81 145 L 78.5 145 L 78.5 148 L 81 148 L 81 150.5 Z" clip-path="url(#ntavIbgGnvzB)" stroke-linejoin="bevel" stroke-miterlimit="10"/><path fill="none" stroke="navy" paint-order="fill" d="M 72.5 146.5 L 92.5 146.5" stroke-linejoin="bevel" stroke-miterlimit="10" clip-path="url(#ntavIbgGnvzB)"/><g clip-path="url(#ntavIbgGnvzB)"><text fill="#444444" stroke="none" font-family="helvetica" font-size="13px" font-style="normal" font-weight="normal" text-decoration="normal" x="0" y="4.5" text-anchor="start" dominant-baseline="alphabetic" transform="matrix(1, 0, 0, 1, 97.5, 146.5)">poseidon2/ noir-bb</text></g><g clip-path="url(#ntavIbgGnvzB)"><text fill="none" stroke="rgb(0 0 0 / 0)" font-family="helvetica" font-size="13px" font-style="normal" font-weight="normal" text-decoration="normal" x="0" y="4.5" text-anchor="start" dominant-baseline="alphabetic" transform="matrix(1, 0, 0, 1, 97.5, 146.5)" stroke-linejoin="bevel" stroke-miterlimit="10">poseidon2/ noir-bb</text></g><path fill="rgb(176 196 222)" stroke="rgb(31 119 180)" paint-order="fill" d="M 78.5 171.8094010767585 L 86.5 171.8094010767585 L 82.5 164.881197846483 Z" clip-path="url(#ntavIbgGnvzB)" stroke-linejoin="bevel" stroke-miterlimit="10"/><path fill="none" stroke="lightsteelblue" paint-order="fill" d="M 72.5 169.5 L 92.5 169.5" stroke-linejoin="bevel" stroke-miterlimit="10" clip-path="url(#ntavIbgGnvzB)"/><g clip-path="url(#ntavIbgGnvzB)"><text fill="#444444" stroke="none" font-family="helvetica" font-size="13px" font-style="normal" font-weight="normal" text-decoration="normal" x="0" y="4.5" text-anchor="start" dominant-baseline="alphabetic" transform="matrix(1, 0, 0, 1, 97.5, 169.5)">mimc/ circom-snarkjs</text></g><g clip-path="url(#ntavIbgGnvzB)"><text fill="none" stroke="rgb(0 0 0 / 0)" font-family="helvetica" font-size="13px" font-style="normal" font-weight="normal" text-decoration="normal" x="0" y="4.5" text-anchor="start" dominant-baseline="alphabetic" transform="matrix(1, 0, 0, 1, 97.5, 169.5)" stroke-linejoin="bevel" stroke-miterlimit="10">mimc/ circom-snarkjs</text></g><path fill="rgb(176 196 222)" stroke="rgb(31 119 180)" paint-order="fill" d="M 78.5 188.5 L 86.5 188.5 L 86.5 196.5 L 78.5 196.5 L 78.5 188.5 Z" clip-path="url(#ntavIbgGnvzB)" stroke-linejoin="bevel" stroke-miterlimit="10"/><path fill="none" stroke="lightsteelblue" paint-order="fill" d="M 72.5 192.5 L 92.5 192.5" stroke-linejoin="bevel" stroke-miterlimit="10" clip-path="url(#ntavIbgGnvzB)"/><g clip-path="url(#ntavIbgGnvzB)"><text fill="#444444" stroke="none" font-family="helvetica" font-size="13px" font-style="normal" font-weight="normal" text-decoration="normal" x="0" y="4.5" text-anchor="start" dominant-baseline="alphabetic" transform="matrix(1, 0, 0, 1, 97.5, 192.5)">poseidon/ circom-snarkjs</text></g><g clip-path="url(#ntavIbgGnvzB)"><text fill="none" stroke="rgb(0 0 0 / 0)" font-family="helvetica" font-size="13px" font-style="normal" font-weight="normal" text-decoration="normal" x="0" y="4.5" text-anchor="start" dominant-baseline="alphabetic" transform="matrix(1, 0, 0, 1, 97.5, 192.5)" stroke-linejoin="bevel" stroke-miterlimit="10">poseidon/ circom-snarkjs</text></g><g clip-path="url(#ntavIbgGnvzB)"><text fill="#444444" stroke="none" font-family="helvetica" font-size="13px" font-style="italic" font-weight="normal" text-decoration="normal" x="0" y="12" text-anchor="start" dominant-baseline="alphabetic" transform="matrix(1, 0, 0, 1, 72.5, 47.5)">Hash Function/ Library</text></g><g clip-path="url(#ntavIbgGnvzB)"><text fill="none" stroke="rgb(0 0 0 / 0)" font-family="helvetica" font-size="13px" font-style="italic" font-weight="normal" text-decoration="normal" x="0" y="12" text-anchor="start" dominant-baseline="alphabetic" transform="matrix(1, 0, 0, 1, 72.5, 47.5)" stroke-linejoin="bevel" stroke-miterlimit="10">Hash Function/ Library</text></g><text fill="#444444" stroke="none" font-family="helvetica" font-size="13px" font-style="normal" font-weight="bold" text-decoration="normal" x="0" y="12" text-anchor="start" dominant-baseline="alphabetic" transform="matrix(1, 0, 0, 1, 52.5, 7.5)">Proof generation runtime with different input length (MBP M1)</text><text fill="none" stroke="rgb(0 0 0 / 0)" font-family="helvetica" font-size="13px" font-style="normal" font-weight="bold" text-decoration="normal" x="0" y="12" text-anchor="start" dominant-baseline="alphabetic" transform="matrix(1, 0, 0, 1, 52.5, 7.5)" stroke-miterlimit="10" stroke-dasharray="">Proof generation runtime with different input length (MBP M1)</text></svg>